<svg width="38" height="38" viewBox="0 0 38 38" fill="none" xmlns="http://www.w3.org/2000/svg">
<circle cx="19" cy="19" r="18.5" fill="#FAFAFA" stroke="#D7D7D7"/>
<path d="M21.3004 24.7373L21.9976 25.5129H12.5263L13.2235 24.7373L13.482 24.4497V24.063V19.5557C13.482 17.4555 14.8102 15.7751 16.405 15.3704L17.1655 15.1774V14.3927V13.8191C17.1655 13.7021 17.2045 13.6399 17.2247 13.6175C17.235 13.6061 17.2423 13.6023 17.2446 13.6012L17.2447 13.6012C17.2462 13.6004 17.2505 13.5985 17.262 13.5985C17.2734 13.5985 17.2777 13.6004 17.2792 13.6012L17.2793 13.6012C17.2816 13.6023 17.2889 13.6061 17.2992 13.6175C17.3194 13.6399 17.3584 13.7021 17.3584 13.8191V14.3927V15.1774L18.1189 15.3704C19.7137 15.7751 21.0419 17.4555 21.0419 19.5557V24.063V24.4497L21.3004 24.7373Z" stroke="#333333" stroke-width="2.01726"/>
<ellipse cx="25.9785" cy="12.9785" rx="3.97851" ry="3.97847" fill="#FF0000"/>
</svg>
